<svg xmlns="http://www.w3.org/2000/svg" viewBox="0 0 64 64">
  <defs>
    <radialGradient id="bg" cx="50%" cy="35%" r="70%">
      <stop offset="0%" stop-color="#1d2431" />
      <stop offset="100%" stop-color="#090b11" />
    </radialGradient>
    <linearGradient id="gold" x1="0%" y1="0%" x2="100%" y2="100%">
      <stop offset="0%" stop-color="#f2d06b" />
      <stop offset="100%" stop-color="#b88913" />
    </linearGradient>
  </defs>
  <rect width="64" height="64" rx="16" fill="url(#bg)" />
  <circle cx="32" cy="32" r="23" fill="none" stroke="url(#gold)" stroke-width="2.5" />
  <g transform="translate(32 32)">
    <path d="M0-18a18 18 0 0 1 0 36a9 9 0 0 0 0-18a9 9 0 0 1 0-18Z" fill="url(#gold)" />
    <path d="M0 18a18 18 0 0 1 0-36a9 9 0 0 0 0 18a9 9 0 0 1 0 18Z" fill="#f7f1e1" />
    <circle cx="0" cy="-9" r="3.1" fill="#090b11" />
    <circle cx="0" cy="9" r="3.1" fill="url(#gold)" />
  </g>
</svg>
